# xmcd
#
# Track frame offsets:
# 150
# 12822
# 21990
# 35850
# 46580
# 59037
# 72090
# 82407
# 93275
# 109080
#
# Disc length: 1569 seconds
#
# Revision: 1
# Processed by: cddbd v1.5PL3 Copyright (c) Steve Scherf et al.
# Submitted via: Axialis_AX_CDPlayer 2.6
#
DISCID=84061f0a
DTITLE=Various Artist - County Gospel Classics - Volume 1
DYEAR=1900
DGENRE=Country
TTITLE0=I Believe/Glen Campbell
TTITLE1=Must Jesus Bear The Cross/The Jordanaires
TTITLE2=Footpints in The Sand/Cristy Lane
TTITLE3=I'll Fly Away/Ferlin Husky
TTITLE4=Rock Of Ages/Tennessee Ernie Ford
TTITLE5=He/Glen Campbell
TTITLE6=Nearer My God To Thee/The Jordanaires
TTITLE7=Amazing Grace/Cristy Lane
TTITLE8=Just A Closer Walk With Thee/Ferlin Husky
TTITLE9=All Hail The Power/Tennessee Ernie Ford
EXTD=ID3G: 2
EXTT0=
EXTT1=
EXTT2=
EXTT3=
EXTT4=
EXTT5=
EXTT6=
EXTT7=
EXTT8=
EXTT9=
PLAYORDER=
